# xmcd
#
# Track frame offsets: 
#        150
#        14667
#        29200
#        39083
#        52064
#        64627
#        78986
#        93880
#        104607
#        120880
#        133661
#        147461
#        164609
#        180357
#        196763
#        216955
#        231287
#        247022
#        260811
#
# Disc length: 3681 seconds
#
# Revision: 0
# Processed by: cddbd v1.5.2PL0 Copyright (c) Steve Scherf et al.
# Submitted via: ExactAudioCopy v0.95b4
#
DISCID=140e5f13
DTITLE=Dwight Yoakam - The Platinum Collection
DYEAR=2006
DGENRE=Country
TTITLE0=Ring of Fire
TTITLE1=Heartaches by the Number
TTITLE2=Always Late With Your Kisses
TTITLE3=Home of the Blues
TTITLE4=Honky Tonk Man
TTITLE5=Smoke Along the Track
TTITLE6=Good Time Charlie's Got The Blues
TTITLE7=Playboy
TTITLE8=North to Alaska
TTITLE9=Streets of Bakersfield (Feat. Buck Owens)
TTITLE10=Guitars, Cadillacs
TTITLE11=I Sang Dixie
TTITLE12=Oh Lonesome Me (Live)
TTITLE13=Grand Tour (Live)
TTITLE14=Today I Started Loving You Again (Live)
TTITLE15=Mystery Train (Live)
TTITLE16=These Arms
TTITLE17=Louisville
TTITLE18=Train In Vain
EXTD=
EXTT0=
EXTT1=
EXTT2=
EXTT3=
EXTT4=
EXTT5=
EXTT6=
EXTT7=
EXTT8=
EXTT9=
EXTT10=
EXTT11=
EXTT12=
EXTT13=
EXTT14=
EXTT15=
EXTT16=
EXTT17=
EXTT18=
PLAYORDER=
